HIERARCHY
ROOT Hips
{
  OFFSET 5.84602e-005 68.8428 3.50346
  CHANNELS 6 Xposition Yposition Zposition Zrotation Xrotation Yrotation
  JOINT Spine
  {
    OFFSET 0 8.597 -4.6522
    CHANNELS 3 Zrotation Xrotation Yrotation
    JOINT Spine1
    {
      OFFSET 0 7.8454 0.4098
      CHANNELS 3 Zrotation Xrotation Yrotation
      JOINT Spine2
      {
        OFFSET 0 9.7078 -2.1609
        CHANNELS 3 Zrotation Xrotation Yrotation
        JOINT Neck
        {
          OFFSET 0 21.8761 -0.4549
          CHANNELS 3 Zrotation Xrotation Yrotation
          JOINT Head
          {
            OFFSET 0 12.3537 3.3602
            CHANNELS 3 Zrotation Xrotation Yrotation
            End Site
            {
              OFFSET 0.0001 18.9506 0.5657
            }
          }
        }
        JOINT LeftShoulder
        {
          OFFSET 2.2086 21.1115 7.2329
          CHANNELS 3 Zrotation Xrotation Yrotation
          JOINT LeftArm
          {
            OFFSET 13.1193 3.0282 -4.8998
            CHANNELS 3 Zrotation Xrotation Yrotation
            JOINT LeftForeArm
            {
              OFFSET 27.4081 -0.0973053 -0.2375
              CHANNELS 3 Zrotation Xrotation Yrotation
              JOINT LeftHand
              {
                OFFSET 22.8641 0.0662994 -0.1369
                CHANNELS 3 Zrotation Xrotation Yrotation
                JOINT LeftHandIndex1
                {
                  OFFSET 8.8614 0.775009 2.4612
                  CHANNELS 3 Zrotation Xrotation Yrotation
                  JOINT LeftHandIndex2
                  {
                    OFFSET 3.3146 -0.808304 0.5841
                    CHANNELS 3 Zrotation Xrotation Yrotation
                    JOINT LeftHandIndex3
                    {
                      OFFSET 2.2628 -0.552002 0.3989
                      CHANNELS 3 Zrotation Xrotation Yrotation
                      End Site
                      {
                        OFFSET 1.6102 -0.4807 0.2612
                      }
                    }
                  }
                }
                JOINT LeftHandMiddle1
                {
                  OFFSET 8.9937 0.895004 0.2143
                  CHANNELS 3 Zrotation Xrotation Yrotation
                  JOINT LeftHandMiddle2
                  {
                    OFFSET 4.0984 0.0113983 -0.0242
                    CHANNELS 3 Zrotation Xrotation Yrotation
                    JOINT LeftHandMiddle3
                    {
                      OFFSET 2.2716 0.00689697 -0.0138001
                      CHANNELS 3 Zrotation Xrotation Yrotation
                      End Site
                      {
                        OFFSET 2.0404 -0.1441 0.0027
                      }
                    }
                  }
                }
                JOINT LeftHandRing1
                {
                  OFFSET 8.5234 0.597198 -2.0164
                  CHANNELS 3 Zrotation Xrotation Yrotation
                  JOINT LeftHandRing2
                  {
                    OFFSET 3.7188 -0.188293 -0.2328
                    CHANNELS 3 Zrotation Xrotation Yrotation
                    JOINT LeftHandRing3
                    {
                      OFFSET 2.1191 -0.106598 -0.1332
                      CHANNELS 3 Zrotation Xrotation Yrotation
                      End Site
                      {
                        OFFSET 1.8737 -0.2304 -0.0886
                      }
                    }
                  }
                }
                JOINT LeftHandPinky1
                {
                  OFFSET 7.9094 -0.601089 -3.4825
                  CHANNELS 3 Zrotation Xrotation Yrotation
                  JOINT LeftHandPinky2
                  {
                    OFFSET 2.2874 -0.477005 -0.6314
                    CHANNELS 3 Zrotation Xrotation Yrotation
                    JOINT LeftHandPinky3
                    {
                      OFFSET 1.6774 -0.349396 -0.4633
                      CHANNELS 3 Zrotation Xrotation Yrotation
                      End Site
                      {
                        OFFSET 1.4888 -0.4091 -0.3416
                      }
                    }
                  }
                }
                JOINT LeftHandThumb1
                {
                  OFFSET 1.833 -1.3875 1.3896
                  CHANNELS 3 Zrotation Xrotation Yrotation
                  JOINT LeftHandThumb2
                  {
                    OFFSET 3.4129 -1.121 2.5732
                    CHANNELS 3 Zrotation Xrotation Yrotation
                    JOINT LeftHandThumb3
                    {
                      OFFSET 2.2474 -0.804199 1.6192
                      CHANNELS 3 Zrotation Xrotation Yrotation
                      End Site
                      {
                        OFFSET 1.6527 -0.5689 1.1317
                      }
                    }
                  }
                }
              }
            }
          }
        }
        JOINT RightShoulder
        {
          OFFSET -2.2086 21.1115 7.2329
          CHANNELS 3 Zrotation Xrotation Yrotation
          JOINT RightArm
          {
            OFFSET -13.1216 3.0287 -4.9007
            CHANNELS 3 Zrotation Xrotation Yrotation
            JOINT RightForeArm
            {
              OFFSET -27.4081 -0.0973053 -0.2375
              CHANNELS 3 Zrotation Xrotation Yrotation
              JOINT RightHand
              {
                OFFSET -22.8641 0.0664063 -0.1369
                CHANNELS 3 Zrotation Xrotation Yrotation
                JOINT RightHandIndex1
                {
                  OFFSET -8.8614 0.774994 2.4612
                  CHANNELS 3 Zrotation Xrotation Yrotation
                  JOINT RightHandIndex2
                  {
                    OFFSET -3.3146 -0.808304 0.5841
                    CHANNELS 3 Zrotation Xrotation Yrotation
                    JOINT RightHandIndex3
                    {
                      OFFSET -2.2628 -0.552002 0.3989
                      CHANNELS 3 Zrotation Xrotation Yrotation
                      End Site
                      {
                        OFFSET -1.6102 -0.4807 0.2612
                      }
                    }
                  }
                }
                JOINT RightHandMiddle1
                {
                  OFFSET -8.9937 0.894989 0.2143
                  CHANNELS 3 Zrotation Xrotation Yrotation
                  JOINT RightHandMiddle2
                  {
                    OFFSET -4.0984 0.0113983 -0.0242
                    CHANNELS 3 Zrotation Xrotation Yrotation
                    JOINT RightHandMiddle3
                    {
                      OFFSET -2.2716 0.00691223 -0.0138001
                      CHANNELS 3 Zrotation Xrotation Yrotation
                      End Site
                      {
                        OFFSET -2.0404 -0.1441 0.0027
                      }
                    }
                  }
                }
                JOINT RightHandRing1
                {
                  OFFSET -8.5234 0.597198 -2.0164
                  CHANNELS 3 Zrotation Xrotation Yrotation
                  JOINT RightHandRing2
                  {
                    OFFSET -3.7188 -0.188309 -0.2328
                    CHANNELS 3 Zrotation Xrotation Yrotation
                    JOINT RightHandRing3
                    {
                      OFFSET -2.1191 -0.106598 -0.1332
                      CHANNELS 3 Zrotation Xrotation Yrotation
                      End Site
                      {
                        OFFSET -1.8737 -0.2304 -0.0886
                      }
                    }
                  }
                }
                JOINT RightHandPinky1
                {
                  OFFSET -7.9094 -0.601105 -3.4825
                  CHANNELS 3 Zrotation Xrotation Yrotation
                  JOINT RightHandPinky2
                  {
                    OFFSET -2.2874 -0.477005 -0.6314
                    CHANNELS 3 Zrotation Xrotation Yrotation
                    JOINT RightHandPinky3
                    {
                      OFFSET -1.6774 -0.349396 -0.4633
                      CHANNELS 3 Zrotation Xrotation Yrotation
                      End Site
                      {
                        OFFSET -1.4888 -0.4091 -0.3416
                      }
                    }
                  }
                }
                JOINT RightHandThumb1
                {
                  OFFSET -1.833 -1.38751 1.3896
                  CHANNELS 3 Zrotation Xrotation Yrotation
                  JOINT RightHandThumb2
                  {
                    OFFSET -3.41299 -1.12099 2.5732
                    CHANNELS 3 Zrotation Xrotation Yrotation
                    JOINT RightHandThumb3
                    {
                      OFFSET -2.24741 -0.804108 1.6192
                      CHANNELS 3 Zrotation Xrotation Yrotation
                      End Site
                      {
                        OFFSET -1.6527 -0.5689 1.1317
                      }
                    }
                  }
                }
              }
            }
          }
        }
      }
    }
  }
  JOINT RightUpLeg
  {
    OFFSET -9.1966 3.8861 -0.7581
    CHANNELS 3 Zrotation Xrotation Yrotation
    JOINT RightLeg
    {
      OFFSET -0.7359 -41.0265 0
      CHANNELS 3 Zrotation Xrotation Yrotation
      JOINT RightFoot
      {
        OFFSET 0 -40.2855 0
        CHANNELS 3 Zrotation Xrotation Yrotation
        JOINT RightToeBase
        {
          OFFSET 0 -5.6122 11.7359
          CHANNELS 3 Zrotation Xrotation Yrotation
          End Site
          {
            OFFSET 0 0 7.8731
          }
        }
      }
    }
  }
  JOINT LeftUpLeg
  {
    OFFSET 9.1965 3.8864 -0.7581
    CHANNELS 3 Zrotation Xrotation Yrotation
    JOINT LeftLeg
    {
      OFFSET 0.7359 -41.0268 0
      CHANNELS 3 Zrotation Xrotation Yrotation
      JOINT LeftFoot
      {
        OFFSET 0 -40.2855 0
        CHANNELS 3 Zrotation Xrotation Yrotation
        JOINT LeftToeBase
        {
          OFFSET 0 -5.6122 11.7359
          CHANNELS 3 Zrotation Xrotation Yrotation
          End Site
          {
            OFFSET 0 0 7.8731
          }
        }
      }
    }
  }
}
MOTION
Frames:	6
Frame Time:	0.0333333
-1.08122 12.3987 -46.4098 -0.0370044 71.9967 0.0420106 -0.104304 6.32294 -0.110471 -0.198081 12.646 -0.211226 -0.198081 12.646 -0.211227 -6.91775e-008 -3.96754 -1.48375e-007 1.06517e-008 -34.0849 6.37087e-008 -1.80347 -14.0378 24.152 1.90009 -2.60975 -65.5197 12.7098 -13.986 -41.4219 56.2096 -3.1062 10.7957 -2.53905e-007 -1.13558e-007 3.13107e-006 -1.59028e-015 -1.98785e-015 -1.59028e-015 2.53905e-007 1.13558e-007 -3.13107e-006 -2.53905e-007 -1.13558e-007 3.13107e-006 -0.0146031 -8.8229e-005 -6.09712e-006 -1.59028e-015 7.95139e-016 3.18055e-015 -2.53905e-007 -1.13558e-007 3.13107e-006 -0.0187835 -0.00117743 5.84531e-005 -3.18055e-015 -1.23246e-014 1.59028e-015 -2.53905e-007 -1.13558e-007 3.13107e-006 -0.0122981 -0.00325451 0.000675982 2.522e-007 1.13464e-007 -3.13098e-006 -2.53905e-007 -1.13558e-007 3.13107e-006 -1.59028e-015 -1.98785e-015 -1.59028e-015 2.53905e-007 1.13558e-007 -3.13107e-006 1.44421 -14.2117 -21.4784 -0.991291 -0.972343 63.7264 -14.9301 -15.7203 48.8739 -53.9766 3.64916 -14.6936 -1.59028e-015 1.59028e-015 -0 3.31043e-032 1.19271e-015 -1.59028e-015 -9.93129e-032 3.57812e-015 1.59028e-015 -1.59028e-015 1.59028e-015 -0 0.0149869 -9.16929e-005 3.33037e-006 1.59028e-015 -1.19271e-015 1.59028e-015 -1.59028e-015 1.59028e-015 -0 0.0190195 -0.00119171 -5.80522e-005 1.59028e-015 -1.59028e-015 -1.59028e-015 -1.59028e-015 1.59028e-015 -0 0.0122685 -0.00324718 -0.000680006 -3.08973e-031 -5.56597e-015 -3.18055e-015 -1.59028e-015 1.59028e-015 -0 3.31043e-032 1.19271e-015 -1.59028e-015 -9.93129e-032 3.57812e-015 1.59028e-015 -45.5912 -27.9891 -61.9303 -24.9278 64.4135 -19.7708 -26.4946 42.3024 31.3998 -7.73723e-006 7.06087e-007 6.74e-006 45.5745 -27.9947 61.9043 24.8909 64.4152 19.7929 26.4659 42.3228 -31.3713 6.11277e-008 -2.23876e-006 4.37367e-007 
-1.08123 12.3235 -46.3632 -0.0370044 71.9967 0.0420106 -0.104324 6.36934 -0.110342 -0.19807 12.7389 -0.210905 -0.19807 12.7388 -0.210906 1.41798e-007 -5.28384 -1.92079e-007 -5.41978e-008 -32.8006 7.13472e-008 -1.70798 -14.1535 24.0545 1.90009 -2.60975 -65.5197 12.7098 -13.986 -41.4219 56.2096 -3.1062 10.7957 -3.28551e-007 -1.47861e-007 5.35502e-006 -3.18055e-015 -7.95139e-016 3.18055e-015 -5.63907e-007 -2.56647e-007 8.50196e-006 -3.28551e-007 -1.47861e-007 5.35502e-006 -0.014613 -8.78112e-005 1.88484e-007 -5.62521e-007 -2.57723e-007 8.50192e-006 -3.28551e-007 -1.47861e-007 5.35502e-006 -0.0187855 -0.00117644 5.16528e-005 -3.29193e-007 -1.48782e-007 5.355e-006 -3.28551e-007 -1.47861e-007 5.35502e-006 -0.0122917 -0.00325417 0.000682044 -3.28856e-007 -1.48554e-007 5.35504e-006 -3.28551e-007 -1.47861e-007 5.35502e-006 -3.18055e-015 -7.95139e-016 3.18055e-015 -5.63907e-007 -2.56647e-007 8.50196e-006 1.35131 -14.343 -21.4175 -0.991277 -0.972334 63.7264 -14.9301 -15.7203 48.8739 -53.9766 3.64916 -14.6935 -3.18055e-015 -4.37326e-015 -0 -1.59028e-015 -1.98785e-015 4.77083e-015 -4.77083e-015 -2.78299e-015 3.18055e-015 -3.18055e-015 -4.37326e-015 -0 0.014975 -9.13431e-005 -3.27168e-011 -1.59028e-015 3.57812e-015 -0 -3.18055e-015 -4.37326e-015 -0 0.0190044 -0.0011904 -5.78996e-005 0 3.97569e-016 -0 -3.18055e-015 -4.37326e-015 -0 0.0122885 -0.00325049 -0.000667766 -4.77083e-015 5.96354e-015 1.59028e-015 -3.18055e-015 -4.37326e-015 -0 -1.59028e-015 -1.98785e-015 4.77083e-015 -4.77083e-015 -2.78299e-015 3.18055e-015 -45.5185 -27.8111 -61.8448 -24.9184 64.4055 -19.7801 -26.5 42.3049 31.4032 1.26958e-006 2.70242e-006 4.01506e-006 45.5021 -27.8167 61.8188 24.8816 64.4073 19.8022 26.4712 42.3254 -31.3747 -7.31052e-007 -2.6768e-006 -1.80206e-006 
-1.08123 12.2482 -46.3166 -0.0370044 71.9967 0.0420106 -0.104343 6.41593 -0.110212 -0.198058 12.8318 -0.210581 -0.198058 12.8318 -0.210581 -1.50874e-006 -6.60452 6.60703e-007 4.29354e-008 -31.5122 -9.48526e-008 -1.61263 -14.2693 23.9572 1.90009 -2.60975 -65.5197 12.7098 -13.986 -41.4219 56.2096 -3.1062 10.7957 -2.16732e-007 -1.0398e-007 3.16275e-006 1.59028e-015 2.38542e-015 1.59028e-015 2.16732e-007 1.0398e-007 -3.16275e-006 -2.16732e-007 -1.0398e-007 3.16275e-006 -0.0146221 -8.80496e-005 -6.34647e-006 -2.14808e-007 -1.04372e-007 3.16273e-006 -2.16732e-007 -1.0398e-007 3.16275e-006 -0.0187604 -0.00117844 6.17621e-005 2.14234e-007 1.04343e-007 -3.16272e-006 -2.16732e-007 -1.0398e-007 3.16275e-006 -0.012241 -0.00324161 0.000678299 3.18055e-015 6.75868e-015 -1.59028e-015 -2.16732e-007 -1.0398e-007 3.16275e-006 1.59028e-015 2.38542e-015 1.59028e-015 2.16732e-007 1.0398e-007 -3.16275e-006 1.2585 -14.4744 -21.3568 -0.991282 -0.972318 63.7264 -14.9301 -15.7203 48.8739 -53.9766 3.64915 -14.6936 8.62584e-007 3.92883e-007 -7.60368e-009 -1.32417e-031 2.38542e-015 3.18055e-015 8.20476e-007 -4.46664e-007 -9.58919e-006 8.62584e-007 3.92883e-007 -7.60368e-009 0.0150087 -9.1797e-005 2.97015e-006 8.20325e-007 -4.47919e-007 -9.58913e-006 8.62584e-007 3.92883e-007 -7.60368e-009 0.0190093 -0.00119191 -6.19664e-005 8.20195e-007 -4.48243e-007 -9.58912e-006 8.62584e-007 3.92883e-007 -7.60368e-009 0.0122788 -0.00325112 -0.000680762 8.20089e-007 -4.47656e-007 -9.58916e-006 8.62584e-007 3.92883e-007 -7.60368e-009 -1.32417e-031 2.38542e-015 3.18055e-015 8.20476e-007 -4.46664e-007 -9.58919e-006 -45.4462 -27.633 -61.7596 -24.909 64.3975 -19.7894 -26.5054 42.3076 31.4067 -1.21288e-005 1.03367e-007 -4.90404e-008 45.4302 -27.6386 61.7337 24.8723 64.3994 19.8113 26.4766 42.328 -31.3782 1.07674e-007 -4.48019e-006 8.7475e-007 
-1.08123 12.1729 -46.27 -0.0370044 71.9967 0.0420106 -0.104362 6.46238 -0.11008 -0.198044 12.9249 -0.210252 -0.198044 12.9249 -0.210252 -5.65857e-008 -7.92949 4.08159e-007 -3.32096e-009 -30.22 -6.08827e-008 -1.51744 -14.3852 23.86 1.9001 -2.60975 -65.5197 12.7098 -13.986 -41.4219 56.2096 -3.1062 10.7958 6.36111e-015 2.38542e-015 -0 4.65021e-007 4.29557e-007 3.2614e-006 9.90173e-008 9.90799e-008 1.10454e-006 6.36111e-015 2.38542e-015 -0 -0.0146017 -8.83505e-005 -2.15924e-006 3.18055e-015 -6.36111e-015 3.18055e-015 6.36111e-015 2.38542e-015 -0 -0.0187349 -0.00117377 5.22429e-005 3.18055e-015 2.78299e-015 -3.18055e-015 6.36111e-015 2.38542e-015 -0 -0.0122913 -0.00325482 0.000684008 9.8012e-008 9.86861e-008 1.10461e-006 6.36111e-015 2.38542e-015 -0 4.65021e-007 4.29557e-007 3.2614e-006 9.90173e-008 9.90799e-008 1.10454e-006 1.16578 -14.6058 -21.2963 -0.991275 -0.972319 63.7264 -14.9301 -15.7203 48.8739 -53.9766 3.64916 -14.6936 7.73059e-008 -1.57233e-007 1.03809e-006 -7.73059e-008 1.57233e-007 -1.03809e-006 7.73059e-008 -1.57233e-007 1.03809e-006 7.73059e-008 -1.57233e-007 1.03809e-006 0.0149923 -9.10788e-005 4.67082e-006 3.18055e-015 7.95139e-015 -1.59028e-015 7.73059e-008 -1.57233e-007 1.03809e-006 0.0189599 -0.00118789 -5.82781e-005 3.18055e-015 -4.77083e-015 1.59028e-015 7.73059e-008 -1.57233e-007 1.03809e-006 0.01226 -0.00324458 -0.000680984 -3.08973e-031 -5.56597e-015 -3.18055e-015 7.73059e-008 -1.57233e-007 1.03809e-006 -7.73059e-008 1.57233e-007 -1.03809e-006 7.73059e-008 -1.57233e-007 1.03809e-006 -45.3744 -27.4549 -61.6749 -24.8997 64.3898 -19.7985 -26.5108 42.3101 31.4101 -6.27048e-006 -2.81308e-006 4.54909e-006 45.3587 -27.4604 61.649 24.8628 64.3914 19.8206 26.482 42.3306 -31.3817 1.1528e-006 1.77644e-006 3.14244e-006 
-1.08123 12.0977 -46.2234 -0.0370044 71.9967 0.0420106 -0.10438 6.50901 -0.109946 -0.19803 13.0181 -0.20992 -0.198031 13.0181 -0.20992 3.93101e-006 -9.25867 -3.36447e-007 4.95112e-008 -28.9242 -4.91348e-009 -1.42239 -14.5014 23.7629 1.9001 -2.60973 -65.5197 12.7098 -13.986 -41.4219 56.2095 -3.10621 10.7958 -1.59028e-015 -5.96354e-015 -3.18055e-015 -2.86904e-031 -5.1684e-015 -3.18055e-015 3.18055e-015 -4.77083e-015 -3.18055e-015 -1.59028e-015 -5.96354e-015 -3.18055e-015 -0.0146372 -8.666e-005 -8.26545e-006 -9.54166e-015 -1.98785e-015 7.95139e-015 -1.59028e-015 -5.96354e-015 -3.18055e-015 -0.0187441 -0.00117688 5.67311e-005 -6.36111e-015 -3.97569e-016 -0 -1.59028e-015 -5.96354e-015 -3.18055e-015 -0.0122945 -0.00325468 0.000678008 -1.59028e-015 -2.78299e-015 1.59028e-015 -1.59028e-015 -5.96354e-015 -3.18055e-015 -2.86904e-031 -5.1684e-015 -3.18055e-015 3.18055e-015 -4.77083e-015 -3.18055e-015 1.07314 -14.7374 -21.2359 -0.991279 -0.972341 63.7264 -14.9301 -15.7202 48.8739 -53.9766 3.64916 -14.6936 1.59028e-015 -1.59028e-015 -1.59028e-015 -0 -7.95139e-016 -0 -1.59028e-015 -3.97569e-016 1.59028e-015 1.59028e-015 -1.59028e-015 -1.59028e-015 0.0150076 -9.08077e-005 2.34533e-006 9.54166e-015 3.97569e-016 -6.36111e-015 1.59028e-015 -1.59028e-015 -1.59028e-015 0.018997 -0.00119139 -6.08891e-005 -6.36111e-015 -9.54166e-015 4.77083e-015 1.59028e-015 -1.59028e-015 -1.59028e-015 0.0122978 -0.00325526 -0.000686624 1.59028e-015 4.77083e-015 3.18055e-015 1.59028e-015 -1.59028e-015 -1.59028e-015 -0 -7.95139e-016 -0 -1.59028e-015 -3.97569e-016 1.59028e-015 -45.3029 -27.2766 -61.5905 -24.8903 64.3818 -19.8078 -26.5162 42.3128 31.4136 -7.84309e-007 4.37557e-007 -2.24114e-006 45.2877 -27.2822 61.5647 24.8534 64.3835 19.8299 26.4875 42.3332 -31.3852 -1.56725e-006 -8.74755e-007 -4.48281e-006 
-1.08123 12.0224 -46.1769 -0.0370044 71.9967 0.0420106 -0.104397 6.55563 -0.10981 -0.198016 13.1114 -0.209585 -0.198016 13.1115 -0.209585 -1.11914e-006 -10.5903 7.17508e-007 6.35354e-008 -27.6253 9.1768e-008 -1.32749 -14.6178 23.666 1.9001 -2.60973 -65.5197 12.7098 -13.986 -41.4219 56.2096 -3.10621 10.7957 1.59028e-015 0 -4.77083e-015 3.18055e-015 0 -4.77083e-015 3.18055e-015 -3.97569e-016 -0 1.59028e-015 0 -4.77083e-015 -0.0146321 -9.02702e-005 2.65045e-006 6.36111e-015 2.78299e-015 -0 1.59028e-015 0 -4.77083e-015 -0.018744 -0.00117569 6.53202e-005 1.59028e-015 3.97569e-016 -1.59028e-015 1.59028e-015 0 -4.77083e-015 -0.0122785 -0.00325095 0.000674187 -1.32417e-031 -1.59028e-015 -4.77083e-015 1.59028e-015 0 -4.77083e-015 3.18055e-015 0 -4.77083e-015 3.18055e-015 -3.97569e-016 -0 0.980572 -14.8692 -21.1758 -0.991294 -0.972329 63.7264 -14.9301 -15.7203 48.8739 -53.9766 3.64916 -14.6936 -1.59028e-015 -7.15625e-015 -0 -1.6365e-007 1.94323e-007 3.3104e-006 1.6365e-007 -1.94323e-007 -3.3104e-006 -1.59028e-015 -7.15625e-015 -0 0.0149803 -9.07393e-005 -1.74976e-006 1.59028e-015 7.95139e-016 1.59028e-015 -1.59028e-015 -7.15625e-015 -0 0.0190229 -0.00119339 -6.42104e-005 1.54487e-030 1.39149e-014 -6.36111e-015 -1.59028e-015 -7.15625e-015 -0 0.0122709 -0.00324976 -0.000682764 -1.59028e-015 4.37326e-015 -1.59028e-015 -1.59028e-015 -7.15625e-015 -0 -1.6365e-007 1.94323e-007 3.3104e-006 1.6365e-007 -1.94323e-007 -3.3104e-006 -45.2319 -27.0983 -61.5065 -24.881 64.3737 -19.817 -26.5217 42.3154 31.4171 -2.78299e-015 0 -7.95139e-016 45.2169 -27.1038 61.4807 24.844 64.3754 19.8393 26.493 42.3358 -31.3886 1.98853e-006 -1.94846e-006 5.55262e-009 
